HIERARCHY
ROOT Hips
{
  OFFSET 377.763 88.2609 174.383
  CHANNELS 6 Xposition Yposition Zposition Zrotation Xrotation Yrotation
  JOINT RightUpLeg
  {
    OFFSET -9.30536 -1.56319 -0.0308412
    CHANNELS 3 Zrotation Xrotation Yrotation
    JOINT RightLeg
    {
      OFFSET -0.0509473 -41.8867 0.0408735
      CHANNELS 3 Zrotation Xrotation Yrotation
      JOINT RightFoot
      {
        OFFSET -0.135761 -42.7852 -0.897951
        CHANNELS 3 Zrotation Xrotation Yrotation
        End Site
        {
          OFFSET 0 -7.69 17.5
        }
      }
    }
  }
  JOINT LeftUpLeg
  {
    OFFSET 9.25165 -1.62789 -0.00729124
    CHANNELS 3 Zrotation Xrotation Yrotation
    JOINT LeftLeg
    {
      OFFSET 0.024936 -41.8804 0.00207043
      CHANNELS 3 Zrotation Xrotation Yrotation
      JOINT LeftFoot
      {
        OFFSET 0.245063 -40.7505 0.529473
        CHANNELS 3 Zrotation Xrotation Yrotation
        End Site
        {
          OFFSET 0 -7.69 17.5
        }
      }
    }
  }
  JOINT Spine
  {
    OFFSET 0.0381636 14.2969 0.0214663
    CHANNELS 3 Zrotation Xrotation Yrotation
    JOINT Spine1
    {
      OFFSET 0.0273681 9.71499 0.0100001
      CHANNELS 3 Zrotation Xrotation Yrotation
      JOINT Spine2
      {
        OFFSET 0.029022 10.1215 -0.000399631
        CHANNELS 3 Zrotation Xrotation Yrotation
        JOINT Spine3
        {
          OFFSET 0.0290531 9.71322 0.0107928
          CHANNELS 3 Zrotation Xrotation Yrotation
          JOINT Neck
          {
            OFFSET 0.0830829 10.3832 0.0498053
            CHANNELS 3 Zrotation Xrotation Yrotation
            JOINT Head
            {
              OFFSET 0.0700972 9.47827 0.0499309
              CHANNELS 3 Zrotation Xrotation Yrotation
              End Site
              {
                OFFSET 0 15.95 0
              }
            }
          }
          JOINT RightShoulder
          {
            OFFSET -3.16088 6.93633 0.0290789
            CHANNELS 3 Zrotation Xrotation Yrotation
            JOINT RightArm
            {
              OFFSET -12.7509 0.028765 0.0682708
              CHANNELS 3 Zrotation Xrotation Yrotation
              JOINT RightForeArm
              {
                OFFSET -26.5067 -0.0728143 0.13822
                CHANNELS 3 Zrotation Xrotation Yrotation
                JOINT RightHand
                {
                  OFFSET -25.9897 -0.0664148 0.00141744
                  CHANNELS 3 Zrotation Xrotation Yrotation
                  JOINT RightHandThumb1
                  {
                    OFFSET -2.48905 0.190105 3.12053
                    CHANNELS 3 Zrotation Xrotation Yrotation
                    JOINT RightHandThumb2
                    {
                      OFFSET -3.68274 0 0
                      CHANNELS 3 Zrotation Xrotation Yrotation
                      JOINT RightHandThumb3
                      {
                        OFFSET -2.55832 0 0
                        CHANNELS 3 Zrotation Xrotation Yrotation
                        End Site
                        {
                          OFFSET -2.194 0 0
                        }
                      }
                    }
                  }
                  JOINT RightInHandIndex
                  {
                    OFFSET -3.22368 0.508421 1.97842
                    CHANNELS 3 Zrotation Xrotation Yrotation
                    JOINT RightHandIndex1
                    {
                      OFFSET -5.21684 -0.091368 0.999158
                      CHANNELS 3 Zrotation Xrotation Yrotation
                      JOINT RightHandIndex2
                      {
                        OFFSET -3.61937 0 0
                        CHANNELS 3 Zrotation Xrotation Yrotation
                        JOINT RightHandIndex3
                        {
                          OFFSET -2.0521 0 0
                          CHANNELS 3 Zrotation Xrotation Yrotation
                          End Site
                          {
                            OFFSET -1.805 0 0
                          }
                        }
                      }
                    }
                  }
                  JOINT RightInHandMiddle
                  {
                    OFFSET -3.38211 0.517263 0.756737
                    CHANNELS 3 Zrotation Xrotation Yrotation
                    JOINT RightHandMiddle1
                    {
                      OFFSET -5.17411 -0.084 0.313895
                      CHANNELS 3 Zrotation Xrotation Yrotation
                      JOINT RightHandMiddle2
                      {
                        OFFSET -3.94947 0 0
                        CHANNELS 3 Zrotation Xrotation Yrotation
                        JOINT RightHandMiddle3
                        {
                          OFFSET -2.47579 0 0
                          CHANNELS 3 Zrotation Xrotation Yrotation
                          End Site
                          {
                            OFFSET -1.975 0 0
                          }
                        }
                      }
                    }
                  }
                  JOINT RightInHandRing
                  {
                    OFFSET -3.36516 0.537895 -0.128947
                    CHANNELS 3 Zrotation Xrotation Yrotation
                    JOINT RightHandRing1
                    {
                      OFFSET -4.63474 -0.022105 -0.478947
                      CHANNELS 3 Zrotation Xrotation Yrotation
                      JOINT RightHandRing2
                      {
                        OFFSET -3.44238 0 0
                        CHANNELS 3 Zrotation Xrotation Yrotation
                        JOINT RightHandRing3
                        {
                          OFFSET -2.3881 0 0
                          CHANNELS 3 Zrotation Xrotation Yrotation
                          End Site
                          {
                            OFFSET -1.857 0 0
                          }
                        }
                      }
                    }
                  }
                  JOINT RightInHandPinky
                  {
                    OFFSET -3.16105 0.469368 -1.20179
                    CHANNELS 3 Zrotation Xrotation Yrotation
                    JOINT RightHandPinky1
                    {
                      OFFSET -4.14105 -0.022105 -1.09053
                      CHANNELS 3 Zrotation Xrotation Yrotation
                      JOINT RightHandPinky2
                      {
                        OFFSET -2.75653 0 0
                        CHANNELS 3 Zrotation Xrotation Yrotation
                        JOINT RightHandPinky3
                        {
                          OFFSET -1.74189 0 0
                          CHANNELS 3 Zrotation Xrotation Yrotation
                          End Site
                          {
                            OFFSET -1.645 0 0
                          }
                        }
                      }
                    }
                  }
                }
              }
            }
          }
          JOINT LeftShoulder
          {
            OFFSET 3.23403 6.91572 -0.0126821
            CHANNELS 3 Zrotation Xrotation Yrotation
            JOINT LeftArm
            {
              OFFSET 12.8488 -0.0444641 -0.0528339
              CHANNELS 3 Zrotation Xrotation Yrotation
              JOINT LeftForeArm
              {
                OFFSET 26.4942 -0.0237746 -0.09002
                CHANNELS 3 Zrotation Xrotation Yrotation
                JOINT LeftHand
                {
                  OFFSET 25.9989 -0.00653758 -0.026747
                  CHANNELS 3 Zrotation Xrotation Yrotation
                  JOINT LeftHandThumb1
                  {
                    OFFSET 2.48905 0.190105 3.12053
                    CHANNELS 3 Zrotation Xrotation Yrotation
                    JOINT LeftHandThumb2
                    {
                      OFFSET 3.68274 0 0
                      CHANNELS 3 Zrotation Xrotation Yrotation
                      JOINT LeftHandThumb3
                      {
                        OFFSET 2.55832 0 0
                        CHANNELS 3 Zrotation Xrotation Yrotation
                        End Site
                        {
                          OFFSET 2.194 0 0
                        }
                      }
                    }
                  }
                  JOINT LeftInHandIndex
                  {
                    OFFSET 3.22368 0.508421 1.97842
                    CHANNELS 3 Zrotation Xrotation Yrotation
                    JOINT LeftHandIndex1
                    {
                      OFFSET 5.21684 -0.091368 0.999158
                      CHANNELS 3 Zrotation Xrotation Yrotation
                      JOINT LeftHandIndex2
                      {
                        OFFSET 3.61937 0 0
                        CHANNELS 3 Zrotation Xrotation Yrotation
                        JOINT LeftHandIndex3
                        {
                          OFFSET 2.0521 0 0
                          CHANNELS 3 Zrotation Xrotation Yrotation
                          End Site
                          {
                            OFFSET 1.805 0 0
                          }
                        }
                      }
                    }
                  }
                  JOINT LeftInHandMiddle
                  {
                    OFFSET 3.38211 0.517263 0.756737
                    CHANNELS 3 Zrotation Xrotation Yrotation
                    JOINT LeftHandMiddle1
                    {
                      OFFSET 5.17411 -0.084 0.313895
                      CHANNELS 3 Zrotation Xrotation Yrotation
                      JOINT LeftHandMiddle2
                      {
                        OFFSET 3.94947 0 0
                        CHANNELS 3 Zrotation Xrotation Yrotation
                        JOINT LeftHandMiddle3
                        {
                          OFFSET 2.47579 0 0
                          CHANNELS 3 Zrotation Xrotation Yrotation
                          End Site
                          {
                            OFFSET 1.975 0 0
                          }
                        }
                      }
                    }
                  }
                  JOINT LeftInHandRing
                  {
                    OFFSET 3.36516 0.537895 -0.128947
                    CHANNELS 3 Zrotation Xrotation Yrotation
                    JOINT LeftHandRing1
                    {
                      OFFSET 4.63474 -0.022105 -0.478947
                      CHANNELS 3 Zrotation Xrotation Yrotation
                      JOINT LeftHandRing2
                      {
                        OFFSET 3.44238 0 0
                        CHANNELS 3 Zrotation Xrotation Yrotation
                        JOINT LeftHandRing3
                        {
                          OFFSET 2.3881 0 0
                          CHANNELS 3 Zrotation Xrotation Yrotation
                          End Site
                          {
                            OFFSET 1.857 0 0
                          }
                        }
                      }
                    }
                  }
                  JOINT LeftInHandPinky
                  {
                    OFFSET 3.16105 0.469368 -1.20179
                    CHANNELS 3 Zrotation Xrotation Yrotation
                    JOINT LeftHandPinky1
                    {
                      OFFSET 4.14105 -0.022105 -1.09053
                      CHANNELS 3 Zrotation Xrotation Yrotation
                      JOINT LeftHandPinky2
                      {
                        OFFSET 2.75653 0 0
                        CHANNELS 3 Zrotation Xrotation Yrotation
                        JOINT LeftHandPinky3
                        {
                          OFFSET 1.74189 0 0
                          CHANNELS 3 Zrotation Xrotation Yrotation
                          End Site
                          {
                            OFFSET 1.645 0 0
                          }
                        }
                      }
                    }
                  }
                }
              }
            }
          }
        }
      }
    }
  }
}
MOTION
Frames: 3
Frame Time: 0.00833333
2.999980551457824163e+02 1.144934307294501706e-02 2.690702532747133845e-03 -1.079924808342964254e-02 -2.881934269698272974e-02 2.844795194985528380e-02 2.385978958874011152e-02 7.478504476978925508e-02 1.916421625376185101e-01 -3.953937864928465384e-02 -3.654038966690514173e-02 -1.627567731348347757e-01 7.594885882078042383e-02 -2.714088301953495111e-02 -5.886531409678159854e-02 1.872759413064057667e-03 4.675441305112103263e-02 1.127797798365783866e-01 6.790912396910565862e-02 6.069460097725394229e-03 -2.082935175845594400e-01 1.057247604071019208e-03 1.285072706546466423e-02 2.365037506672368686e-02 -9.765633997749776155e-03 -3.458159631971136159e-03 -3.220921763302145302e-02 -1.620820493047459227e-03 -2.402439325969668929e-03 -7.697571222201150982e-03 -3.533510078667509262e-03 -2.508127371667279171e-03 -1.217501706955540289e-02 3.276240440203255174e-04 7.135403589780676785e-04 1.369345694065994892e-03 1.003040841653748613e-03 1.424780544748033978e-02 4.917893919616582454e-02 -7.754686222270387426e-04 1.083131515601544123e-02 3.311590443117812255e-02 6.024236994158903985e-02 2.545667228305062424e-02 -1.588599938209326878e-01 5.081773962053579563e-01 8.038727180531030081e-02 6.401283413166121150e-01 -7.963430265056746504e-02 -5.095732785259419334e-02 2.775855196645475240e-02 1.294841198701849883e-01 -2.286459749014396192e-01 3.292117628069906599e-01 0.000000000000000000e+00 0.000000000000000000e+00 0.000000000000000000e+00 2.396991277969346297e-15 -9.510345587148895381e-16 0.000000000000000000e+00 -3.523898561480829371e-15 -1.083697777604348986e-15 0.000000000000000000e+00 -2.686627317164987265e-16 -1.338501706229726714e-15 -3.180967144739856568e-16 0.000000000000000000e+00 0.000000000000000000e+00 0.000000000000000000e+00 0.000000000000000000e+00 -1.554537055724354764e-16 -4.896154263089657665e-16 0.000000000000000000e+00 1.185689242745013574e-16 -1.226898456264917320e-15 -2.686627317164987265e-16 -1.338501706229726714e-15 -3.180967144739856568e-16 0.000000000000000000e+00 -4.253134262683934526e-17 1.348442972116932333e-16 0.000000000000000000e+00 5.338765341197795281e-17 -1.022051279512419943e-15 0.000000000000000000e+00 4.887480129778147926e-16 -9.287249208611905103e-16 -2.686627317164987265e-16 -1.338501706229726714e-15 -3.180967144739856568e-16 0.000000000000000000e+00 0.000000000000000000e+00 0.000000000000000000e+00 0.000000000000000000e+00 1.665333590058971868e-16 -7.985077167182312987e-16 0.000000000000000000e+00 3.455933926798112207e-16 2.548036654671886713e-16 -2.686627317164987265e-16 -1.338501706229726714e-15 -3.180967144739856568e-16 0.000000000000000000e+00 0.000000000000000000e+00 0.000000000000000000e+00 0.000000000000000000e+00 -1.734550932982589389e-15 1.663685695794020605e-16 0.000000000000000000e+00 2.844543314334022389e-15 -3.904667543853168758e-16 -3.577543412390938454e-02 1.107970891263857990e-02 1.383373326599331155e-02 3.598937783378685501e-02 6.263547579655470710e-04 -2.209718077096087252e-02 -1.633178826056291139e-02 2.333381362163469003e-02 2.041956077843130185e-02 -3.410366124299998858e-02 9.838186721473150820e-03 -3.848312152940680519e-02 0.000000000000000000e+00 0.000000000000000000e+00 0.000000000000000000e+00 -1.852560775564292352e-16 -9.757015400455578781e-16 0.000000000000000000e+00 -1.743749209037021301e-16 -3.201585721394896991e-16 0.000000000000000000e+00 7.710856286851993865e-16 -1.414986292096485637e-15 5.724053328932917505e-16 0.000000000000000000e+00 0.000000000000000000e+00 0.000000000000000000e+00 0.000000000000000000e+00 2.542348804012504020e-16 1.592119900156562653e-16 0.000000000000000000e+00 -7.248024085398705774e-17 3.522023193926061530e-16 7.710856286851993865e-16 -1.414986292096485637e-15 5.724053328932917505e-16 0.000000000000000000e+00 1.310573713638855057e-15 6.858352721074025456e-16 0.000000000000000000e+00 -9.409491510096147459e-16 6.188589183109287563e-16 0.000000000000000000e+00 -9.730243128771573519e-16 -2.007610612380475134e-16 7.710856286851993865e-16 -1.414986292096485637e-15 5.724053328932917505e-16 0.000000000000000000e+00 0.000000000000000000e+00 0.000000000000000000e+00 0.000000000000000000e+00 1.136970732569923329e-15 6.524834326374893616e-16 0.000000000000000000e+00 -3.152421035557753815e-16 1.377611585701818807e-15 7.710856286851993865e-16 -1.414986292096485637e-15 5.724053328932917505e-16 0.000000000000000000e+00 0.000000000000000000e+00 0.000000000000000000e+00 0.000000000000000000e+00 4.161707175229072240e-16 3.967545956682268155e-16 0.000000000000000000e+00 -4.065773056985058461e-16 6.534437663924451424e-16
2.999985476738261809e+02 1.140662590205305908e-02 6.667947845828850126e-03 -2.718541854427293514e-02 -3.356839631209183189e-02 -2.889080454144185919e-02 -1.513595708552543419e-04 5.269301507448558713e-02 5.181087689879454450e-02 -2.347351752192650826e-02 -9.432521960361588131e-03 -3.418583816786445462e-02 6.157998265839778607e-02 -1.910600107962280927e-02 -6.299227472735145425e-03 -4.200825999477623973e-02 -1.680156865934167437e-02 -3.311636733253486842e-02 -5.027397945713432681e-02 2.256858449372166689e-02 -9.646404007130973679e-04 1.952555142654861450e-02 1.824559097625828852e-02 5.656317804026102930e-02 -1.357474405173206625e-02 -6.295049693063622595e-03 -1.233145744732241575e-02 -3.591719033034297681e-03 -4.095795933030914847e-03 -2.758274425719141158e-03 -5.152796878144455008e-03 -4.032872801235880440e-03 -4.233257208983876897e-03 -2.280310420938314579e-05 3.055586853133425776e-03 1.559342525849180842e-03 -5.757704774405135277e-03 4.442173055992974101e-02 4.256257450941975523e-02 4.204291016989604793e-03 3.498066086759814286e-02 4.411672738438776609e-02 7.706011965556383569e-02 4.293939340678724209e-02 -2.569065340166466482e-01 6.503617356581388176e-01 1.180602610005760805e-01 7.182378711500222446e-01 -1.239507576050719179e-01 -1.349603005368811906e-02 8.410747468735642329e-02 2.877117419408629223e-02 -5.489998105931229166e-02 4.326881624884575117e-02 0.000000000000000000e+00 0.000000000000000000e+00 0.000000000000000000e+00 6.960077519601311807e-15 -3.281401707348134436e-16 0.000000000000000000e+00 -2.844138928267313071e-16 1.376833865149862494e-15 0.000000000000000000e+00 4.195365158691500103e-15 -4.046573808756051160e-16 -9.109775328046436005e-16 0.000000000000000000e+00 0.000000000000000000e+00 0.000000000000000000e+00 0.000000000000000000e+00 -5.729031608637001627e-16 -5.976951706879190638e-16 0.000000000000000000e+00 3.097227378984290229e-16 1.669432507142292338e-15 4.195365158691500103e-15 -4.046573808756051160e-16 -9.109775328046436005e-16 0.000000000000000000e+00 1.387633072596517642e-16 -1.274379927626224673e-16 0.000000000000000000e+00 -7.805639091331031920e-16 -7.136314695664728647e-16 0.000000000000000000e+00 8.995784471591077616e-16 5.116685900825706105e-16 4.195365158691500103e-15 -4.046573808756051160e-16 -9.109775328046436005e-16 0.000000000000000000e+00 0.000000000000000000e+00 0.000000000000000000e+00 0.000000000000000000e+00 1.388082565344119663e-15 -5.897206528955473088e-16 0.000000000000000000e+00 8.998194585990183285e-16 1.451670696851072224e-15 4.195365158691500103e-15 -4.046573808756051160e-16 -9.109775328046436005e-16 0.000000000000000000e+00 0.000000000000000000e+00 0.000000000000000000e+00 0.000000000000000000e+00 -2.282868999344698117e-15 8.900034073983882507e-16 0.000000000000000000e+00 9.256456579311662815e-16 -5.214861372455184268e-16 -5.641997699697789970e-02 3.707722666091141372e-02 -1.213416000880268228e-03 2.792891028634155587e-02 1.098598211296533504e-02 4.891024654749184450e-03 -4.938206210799768459e-02 2.884029636403834598e-02 1.315929880592053153e-02 -4.143224306534861595e-02 2.005395738885558735e-02 -4.436365003740997542e-02 0.000000000000000000e+00 0.000000000000000000e+00 0.000000000000000000e+00 -3.803729043817096325e-16 2.217249643893291902e-17 0.000000000000000000e+00 1.126764044782608525e-15 1.474817842480960019e-16 0.000000000000000000e+00 -8.260591707310256745e-16 1.868309942610766417e-16 4.114550785920317209e-16 0.000000000000000000e+00 0.000000000000000000e+00 0.000000000000000000e+00 0.000000000000000000e+00 -6.263208635567512958e-16 3.762303435017992035e-16 0.000000000000000000e+00 -1.200238518816883547e-16 -5.892964015065042499e-17 -8.260591707310256745e-16 1.868309942610766417e-16 4.114550785920317209e-16 0.000000000000000000e+00 7.327089380990997461e-16 5.743447171341672531e-16 0.000000000000000000e+00 -6.271991976289703389e-16 8.099248060416086627e-17 0.000000000000000000e+00 -1.174333247575853611e-15 -1.160334198934539707e-15 -8.260591707310256745e-16 1.868309942610766417e-16 4.114550785920317209e-16 0.000000000000000000e+00 0.000000000000000000e+00 0.000000000000000000e+00 0.000000000000000000e+00 9.809320259295700020e-16 7.430697275635569579e-16 0.000000000000000000e+00 -4.262911065739423473e-16 5.899298697162620433e-16 -8.260591707310256745e-16 1.868309942610766417e-16 4.114550785920317209e-16 0.000000000000000000e+00 0.000000000000000000e+00 0.000000000000000000e+00 0.000000000000000000e+00 -9.641907994063447459e-16 1.115611869163582868e-15 0.000000000000000000e+00 -2.860976357404112737e-16 3.924055746768304181e-16
3.000010602922947101e+02 5.309969575795036104e-03 1.180890055171572063e-02 -4.386171679909031673e-02 -3.968502782678953039e-02 -7.350784367091731976e-03 -5.968842750724927954e-02 -1.394651457255424373e-02 -9.873680647884230943e-02 -2.150092080110947539e-03 1.735945543616297659e-02 9.582003684512900576e-02 2.234784956568337810e-02 -5.676856885166312733e-03 -7.312599993534504156e-04 -9.337768908043805882e-02 -1.163690014455244504e-01 -1.937866314881356022e-01 -1.356597288500421550e-01 6.345701371580486638e-02 1.332487906952668499e-01 3.808598682481104114e-02 2.776852361704522376e-02 1.009136005472456160e-01 -2.684001003581151443e-02 -1.004298507396663744e-02 -4.154568817338576137e-02 -6.806914800158171339e-03 -4.911774370383969850e-03 -1.010200589075378221e-02 -1.015906125048214592e-02 -7.062127062319077490e-03 -1.584846342881626041e-02 -5.275814798261562952e-04 4.657698279700132893e-03 1.260262916628894373e-03 -1.077030505084626902e-02 6.514646762924335144e-02 3.116506607715992944e-02 5.739510225824091816e-03 5.691901931970235612e-02 4.831552623120027867e-02 8.367920807512756187e-02 6.119192032653998636e-02 -2.349038467077203263e-01 6.121594677658916961e-01 1.188807018782729319e-01 6.111279559279980678e-01 -1.748213781298157132e-01 -1.013577573439305123e-02 1.139119947797125887e-01 -8.123143558047005164e-02 1.727722445168318743e-01 -2.762784298249612025e-01 0.000000000000000000e+00 0.000000000000000000e+00 0.000000000000000000e+00 1.142820844745116898e-14 -7.934379805745292706e-16 0.000000000000000000e+00 2.971819813403349742e-15 1.628545632438581660e-15 0.000000000000000000e+00 6.353067645788005917e-15 1.218440027431599576e-15 -8.495523999611522798e-16 0.000000000000000000e+00 0.000000000000000000e+00 0.000000000000000000e+00 0.000000000000000000e+00 -7.845012310686295408e-16 -1.717449506704726071e-15 0.000000000000000000e+00 4.805931418728076687e-16 2.393118733423765542e-15 6.353067645788005917e-15 1.218440027431599576e-15 -8.495523999611522798e-16 0.000000000000000000e+00 1.597489910910513184e-15 -8.505523717790812715e-16 0.000000000000000000e+00 -1.347523080585935402e-15 -5.484257681985130525e-16 0.000000000000000000e+00 6.363381223245563929e-16 2.621280107715079818e-16 6.353067645788005917e-15 1.218440027431599576e-15 -8.495523999611522798e-16 0.000000000000000000e+00 0.000000000000000000e+00 0.000000000000000000e+00 0.000000000000000000e+00 2.247846778324157915e-15 -7.228040442976204291e-16 0.000000000000000000e+00 4.999021399989709379e-16 1.491812571833976775e-15 6.353067645788005917e-15 1.218440027431599576e-15 -8.495523999611522798e-16 0.000000000000000000e+00 0.000000000000000000e+00 0.000000000000000000e+00 0.000000000000000000e+00 -2.299552204599759253e-15 -5.425511886652691340e-16 0.000000000000000000e+00 -1.094600448633835692e-15 -1.021585800628453206e-15 -5.486055391127084985e-02 6.436175036571145647e-02 5.227238921437282748e-03 1.568434847585924857e-02 3.587046967466095415e-02 1.856659177474482073e-02 -6.763397678402838231e-02 3.391701837286850013e-02 2.026706120562260342e-03 -4.030975123247773628e-02 3.446357056397174323e-02 -5.452862356682976197e-02 0.000000000000000000e+00 0.000000000000000000e+00 0.000000000000000000e+00 -4.194298329941854386e-16 2.346989199364359004e-16 0.000000000000000000e+00 2.605706792186381719e-15 5.358633055230329150e-16 0.000000000000000000e+00 -1.512698112753951929e-15 1.501460384305272364e-15 8.115857425519418485e-17 0.000000000000000000e+00 0.000000000000000000e+00 0.000000000000000000e+00 0.000000000000000000e+00 -7.049618560403915539e-16 8.996933695635217490e-17 0.000000000000000000e+00 -1.118354969588020559e-16 -4.082305858566824547e-16 -1.512698112753951929e-15 1.501460384305272364e-15 8.115857425519418485e-17 0.000000000000000000e+00 -1.159446748984813057e-16 -9.893914198229627751e-18 0.000000000000000000e+00 -5.143013823982647926e-16 -1.182030358910320335e-15 0.000000000000000000e+00 -1.123910622281959083e-15 -2.203664725772138962e-15 -1.512698112753951929e-15 1.501460384305272364e-15 8.115857425519418485e-17 0.000000000000000000e+00 0.000000000000000000e+00 0.000000000000000000e+00 0.000000000000000000e+00 -5.103847427772325991e-16 4.883298466449627534e-16 0.000000000000000000e+00 -6.407611037000302779e-16 1.004754451994518584e-16 -1.512698112753951929e-15 1.501460384305272364e-15 8.115857425519418485e-17 0.000000000000000000e+00 0.000000000000000000e+00 0.000000000000000000e+00 0.000000000000000000e+00 -2.510571741570570561e-15 1.234154251175567987e-15 0.000000000000000000e+00 -6.728945004958650995e-16 4.026116796790714569e-16
